HIERARCHY
ROOT Hips
{
  OFFSET 263.056 91.6644 -274.608
  CHANNELS 6 Xposition Yposition Zposition Zrotation Xrotation Yrotation
  JOINT LeftUpLeg
  {
    OFFSET 8.64259 1.95398 -2.38835
    CHANNELS 3 Zrotation Xrotation Yrotation
    JOINT LeftLeg
    {
      OFFSET 43.7702 0 0
      CHANNELS 3 Zrotation Xrotation Yrotation
      JOINT LeftFoot
      {
        OFFSET 40.6238 0 0
        CHANNELS 3 Zrotation Xrotation Yrotation
        JOINT LeftToeBase
        {
          OFFSET 12.7242 0 0
          CHANNELS 3 Zrotation Xrotation Yrotation
          End Site
          {
            OFFSET 0 0 0
          }
        }
      }
    }
  }
  JOINT RightUpLeg
  {
    OFFSET -8.2249 1.95398 -2.59336
    CHANNELS 3 Zrotation Xrotation Yrotation
    JOINT RightLeg
    {
      OFFSET 43.5653 0 0
      CHANNELS 3 Zrotation Xrotation Yrotation
      JOINT RightFoot
      {
        OFFSET 40.6238 0 0
        CHANNELS 3 Zrotation Xrotation Yrotation
        JOINT RightToeBase
        {
          OFFSET 12.7242 0 0
          CHANNELS 3 Zrotation Xrotation Yrotation
          End Site
          {
            OFFSET 0 0 0
          }
        }
      }
    }
  }
  JOINT Spine
  {
    OFFSET 0.165834 0.87714 6.61349
    CHANNELS 3 Zrotation Xrotation Yrotation
    JOINT Spine1
    {
      OFFSET 7.38963 1.71661e-005 0
      CHANNELS 3 Zrotation Xrotation Yrotation
      JOINT Spine2
      {
        OFFSET 11.9445 1.14441e-005 0
        CHANNELS 3 Zrotation Xrotation Yrotation
        JOINT Spine3
        {
          OFFSET 14.7254 4.19617e-005 0
          CHANNELS 3 Zrotation Xrotation Yrotation
          JOINT Spine4
          {
            OFFSET 10.9679 0 0
            CHANNELS 3 Zrotation Xrotation Yrotation
            JOINT RightShoulder
            {
              OFFSET 2.46616 -1.6653 3.69651
              CHANNELS 3 Zrotation Xrotation Yrotation
              JOINT RightArm
              {
                OFFSET 13.0012 0 0
                CHANNELS 3 Zrotation Xrotation Yrotation
                JOINT RightForeArm
                {
                  OFFSET 28.7848 1.52588e-005 0
                  CHANNELS 3 Zrotation Xrotation Yrotation
                  JOINT RightHand
                  {
                    OFFSET 26.5688 1.52588e-005 0
                    CHANNELS 3 Zrotation Xrotation Yrotation
                    End Site
                    {
                      OFFSET 0 0 0
                    }
                  }
                }
              }
            }
            JOINT LeftShoulder
            {
              OFFSET 2.38034 -1.29275 -3.7523
              CHANNELS 3 Zrotation Xrotation Yrotation
              JOINT LeftArm
              {
                OFFSET 16.3182 6.10352e-005 0
                CHANNELS 3 Zrotation Xrotation Yrotation
                JOINT LeftForeArm
                {
                  OFFSET 27.0901 0 0
                  CHANNELS 3 Zrotation Xrotation Yrotation
                  JOINT LeftHand
                  {
                    OFFSET 24.5451 1.52588e-005 0
                    CHANNELS 3 Zrotation Xrotation Yrotation
                    End Site
                    {
                      OFFSET 0 0 0
                    }
                  }
                }
              }
            }
            JOINT Neck
            {
              OFFSET 5.0226 -0.0266342 0
              CHANNELS 3 Zrotation Xrotation Yrotation
              JOINT Head
              {
                OFFSET 6.69364 2.86102e-005 0
                CHANNELS 3 Zrotation Xrotation Yrotation
                End Site
                {
                  OFFSET 0 0 0
                }
              }
            }
          }
        }
      }
    }
  }
}
MOTION
Frames:	12
Frame Time:	0.0416667
85.4901 97.3241 -114.35 44.9362 -89.4696 45.0294 -168.945 12.8874 95.8635 -16.5865 -8.72818 -1.37383 62.6119 7.84821 14.7074 37.5449 10.191 6.70343 173.707 6.2174 87.8519 -21.0669 19.9488 2.78046 71.7587 -5.58534 -2.84254 33.4207 0.204093 3.68816 0.536059 7.67816 -88.8076 11.4969 1.62398 2.20985 -0.174777 1.71966 2.13626 -22.6979 0.885004 2.59552 -2.68526 0.885007 2.59552 74.7212 -50.9938 -123.129 29.6433 -3.52701 19.1908 -5.11604 -12.3933 -31.1406 -8.18604 -0.618862 2.94116 -95.4942 -41.5659 67.8021 -9.59153 11.1319 -13.0237 34.1627 -28.5136 -122.393 5.57811 0.65459 6.32129 -3.79648 -2.51621 10.2047 10.6439 -5.2166 -13.3045 
86.444 97.3639 -114.619 90.6426 -89.281 91.056 -167.983 12.5471 96.603 -16.0111 -10.0419 -2.26731 59.8921 4.00199 12.1633 35.5734 7.67938 4.22877 173.583 5.50508 87.5032 -20.3252 20.5387 2.83456 71.5995 -5.39089 -2.76151 32.3185 0.148619 2.22216 0.457026 7.67119 -88.8636 11.5136 1.4407 2.11668 -0.158216 1.53245 2.05125 -22.6817 0.738169 2.45162 -2.66909 0.738166 2.45162 74.7886 -50.8956 -123.079 29.7668 -2.77568 19.9171 -5.3551 -11.7206 -31.3311 -7.5947 -0.574135 2.81291 -95.3656 -41.3329 67.9259 -10.2353 10.361 -12.5873 32.7534 -27.8276 -123.231 4.7942 0.544051 5.7462 -3.46565 -2.23274 10.4177 10.0444 -4.94423 -13.5257 
87.4972 97.2963 -114.93 128.522 -89.1749 129.435 -167.587 12.5164 97.0783 -16.2885 -9.29855 -2.69378 58.1047 1.44258 10.6554 35.6304 7.68348 1.37338 173.655 4.80549 87.4412 -19.507 20.6658 2.55744 71.649 -5.53383 -2.82766 31.6582 0.134624 1.0991 0.429657 7.676 -88.9332 11.506 1.35366 1.98706 -0.165665 1.43978 1.92557 -22.6906 0.69406 2.30187 -2.67792 0.694061 2.30186 75.1293 -51.2072 -122.448 29.1633 -2.72173 20.0514 -5.20421 -11.9871 -30.9092 -7.43413 -0.553029 2.57523 -95.3404 -41.3889 67.9868 -10.4388 9.72505 -12.3069 31.4766 -27.2964 -123.94 5.14031 0.508626 4.74142 -3.06007 -2.07686 9.96049 9.53087 -4.62269 -12.7351 
88.4576 97.2347 -115.084 121.077 -88.5879 122.083 -167.232 12.9349 96.8561 -17.4032 -8.73833 -3.17776 58.4914 1.81292 10.211 36.3194 8.40668 -0.239097 173.332 5.02294 86.8743 -20.046 21.1711 2.55717 71.1044 -5.31005 -2.73461 33.0036 0.205182 2.15296 0.340334 7.67469 -88.9764 11.5109 1.1558 1.9212 -0.160897 1.23922 1.86848 -22.6858 0.525117 2.17963 -2.67318 0.525116 2.17962 75.8019 -51.3305 -121.432 28.4716 -3.0866 19.8436 -4.25351 -11.5497 -29.8571 -6.78827 -0.512526 2.56088 -95.6207 -41.6618 67.633 -10.5262 9.20365 -12.2103 30.2946 -26.7295 -124.475 4.46194 0.403355 3.87265 -2.6191 -1.97738 9.60903 9.27967 -4.42789 -12.1713 
89.304 97.1372 -115.192 110.777 -88.2533 111.849 -166.827 13.7301 96.7283 -18.7668 -6.92581 -3.76708 58.8009 2.38808 10.5466 37.5959 9.79797 -0.480802 172.895 5.64619 86.3748 -21.0651 20.163 2.71491 72.1818 -5.57303 -2.8213 32.0306 0.155946 1.2851 0.307589 7.66583 -89.0188 11.53 1.07096 1.84515 -0.141796 1.15111 1.79625 -22.6674 0.467043 2.08161 -2.65474 0.467042 2.08161 75.2146 -50.9963 -122.423 28.9941 -1.4841 20.993 -4.95498 -10.3499 -30.282 -6.25928 -0.487496 2.81208 -96.4992 -42.2728 66.4529 -10.1257 8.66565 -12.1171 29.8995 -26.4292 -124.649 4.69215 0.416433 3.82884 -2.31428 -2.21543 9.551 9.58714 -4.73829 -12.3873 
89.9965 97.0736 -115.394 121.231 -88.0046 122.207 -166.701 14.0618 96.6187 -20.3315 -4.23539 -3.99954 58.4251 1.82201 9.91383 40.1362 12.4407 -1.72384 173.055 5.75302 86.1207 -21.6198 19.8556 2.17821 72.7288 -5.75793 -2.88809 31.6004 0.105189 1.80377 0.346923 7.70182 -89.0305 11.4577 1.14323 1.81517 -0.213908 1.22199 1.7631 -22.7401 0.544972 2.07473 -2.72748 0.544972 2.07472 75.2058 -51.1129 -122.382 28.656 -1.21627 21.4233 -3.44872 -7.88987 -30.2523 -6.24247 -0.453757 2.50072 -97.3731 -42.7477 65.2491 -9.8526 8.29783 -11.9428 30.3378 -26.4428 -124.449 4.3465 0.440095 4.57507 -2.39589 -2.62978 8.95054 9.87111 -5.03296 -11.8191 
90.6853 97.0554 -115.566 126.863 -87.8639 127.878 -167.243 14.5499 96.4392 -21.9511 1.14994 -3.61311 56.7188 0.635053 10.3687 46.7652 18.7734 -4.8398 173.387 5.82815 86.0771 -21.7237 20.0944 1.6696 72.8184 -5.61994 -2.81583 30.8741 0.034143 2.12268 0.386238 7.72702 -89.025 11.4068 1.22363 1.81869 -0.264806 1.30248 1.76308 -22.7913 0.620616 2.10224 -2.77866 0.620604 2.10223 75.1879 -51.2946 -122.325 28.6899 -1.24458 21.5987 -4.35473 -9.64358 -29.8301 -6.63243 -0.512869 2.96927 -97.5456 -42.7075 64.9619 -10.2271 8.95209 -12.2064 31.7403 -26.9408 -123.511 5.1492 0.524526 4.87889 -2.15644 -2.84729 8.29119 9.79238 -5.15114 -11.6039 
91.3023 96.9299 -115.632 128.333 -87.7871 129.313 -168.441 14.7316 96.0691 -23.1997 8.55742 -2.82294 55.1206 -0.354324 10.7879 54.1387 26.0342 -4.9228 173.621 6.07852 85.8752 -22.1322 20.0072 1.26966 73.2386 -5.40583 -2.70006 30.2178 -0.0552421 2.87108 0.413799 7.74921 -88.9758 11.3608 1.30105 1.90929 -0.310804 1.38382 1.85019 -22.8365 0.667248 2.2119 -2.82385 0.667247 2.2119 75.2294 -51.751 -122.058 28.4906 -1.91031 21.1369 -3.50527 -9.40647 -29.1081 -6.43322 -0.4901 2.8171 -97.0893 -42.6075 65.6434 -10.5177 9.21251 -12.6919 30.6451 -26.3199 -123.751 4.63871 0.497676 5.25312 -1.3479 -3.05336 6.93977 9.09045 -5.08163 -10.8586 
91.9259 96.8053 -115.766 133.266 -87.4949 134.334 -170.126 14.4448 95.766 -24.236 15.975 -1.81254 54.7911 0.147665 12.5312 57.146 29.9544 -2.37434 173.89 6.02145 85.8133 -22.5123 20.1936 0.826191 73.7442 -5.31064 -2.63883 28.8968 -0.187511 3.15258 0.463175 7.79768 -88.9981 11.2637 1.38817 1.85728 -0.407705 1.46856 1.7944 -22.9345 0.765956 2.18846 -2.92184 0.765964 2.18847 75.4112 -51.8754 -121.744 28.5993 -2.50501 21.0718 -4.67003 -11.4029 -28.5397 -6.98197 -0.594425 3.96056 -97.3332 -42.9178 65.3767 -10.8619 10.595 -12.9013 34.9646 -28.0431 -121.811 6.44307 0.981818 9.47436 -1.02839 -3.38141 6.35764 9.28477 -5.28161 -10.1116 
92.5087 96.7731 -115.677 122.773 -87.4055 123.872 -172.104 14.2515 95.3131 -24.8118 21.4507 -0.578111 55.3526 1.47319 14.1139 60.8298 32.7111 -4.57064 174.023 6.1363 85.6482 -22.3121 21.0033 0.644862 73.6179 -5.07614 -2.53866 28.5997 -0.247173 3.66435 0.47521 7.7589 -89.0053 11.3413 1.40934 1.83985 -0.330079 1.48893 1.77605 -22.8572 0.791376 2.17821 -2.84455 0.791372 2.17821 75.746 -51.8832 -121.264 28.6367 -2.32264 21.1032 -4.46683 -11.0734 -28.8466 -5.40975 -0.459254 3.3166 -97.1876 -42.9125 65.6037 -11.5825 11.1853 -12.7626 34.2902 -27.5449 -121.256 7.01189 0.744814 5.80571 -0.841222 -3.72938 6.36867 9.10453 -5.62988 -10.2119 
93.1501 96.7202 -115.643 120.92 -87.8655 122.069 -173.727 13.5976 94.7013 -24.711 26.034 0.392154 55.8811 2.49898 15.0763 60.0549 34.6915 1.62894 174.039 6.38093 85.3058 -22.0618 21.0043 0.520576 73.2428 -4.79111 -2.42065 29.099 -0.207368 3.80734 0.535017 7.69152 -89.0135 11.4756 1.52548 1.80991 -0.19562 1.60366 1.74102 -22.7238 0.911157 2.18455 -2.71115 0.911151 2.18454 75.8126 -51.8714 -121.175 28.6223 -2.64386 21.325 -4.51465 -11.2737 -28.8404 -4.63672 -0.427478 3.74752 -96.8838 -43.0654 66.1389 -12.5051 12.2458 -12.317 36.5265 -28.2944 -120.115 8.12282 1.03559 7.69874 -0.813907 -3.90965 6.24507 9.00039 -5.74739 -9.88448 
93.7031 96.6989 -115.749 140.535 -88.3808 141.665 -174.396 12.6867 94.0928 -24.4439 27.3287 0.841291 57.0322 3.956 15.5664 59.3717 35.2615 4.41902 174.105 6.18317 85.0233 -21.4182 21.2288 0.22016 73.2216 -4.77561 -2.41472 28.2119 -0.329522 4.3417 0.643437 7.69892 -89.0423 11.4602 1.72762 1.73224 -0.210608 1.80218 1.65453 -22.7411 1.12728 2.17123 -2.72844 1.12728 2.17124 76.2426 -51.4708 -120.738 28.6673 -2.85565 21.2285 -4.59383 -11.5594 -28.6016 -3.79233 -0.35133 2.74998 -97.0855 -43.2575 65.8937 -13.4652 11.5856 -11.3444 33.5962 -27.1572 -121.474 6.93358 0.793724 6.24715 -0.39127 -3.97092 6.60377 8.7945 -5.86883 -9.96814 
